# xmcd CD database file
#
# Track frame offsets:
#	150
#	18079
#	40904
#	62148
#	83343
#	106568
#	131634
#	153989
#	160741
#	242148
#
# Disc length: 4425 seconds
#
# Revision: 0
# Processed by: cddbd v1.5.2PL0 Copyright (c) Steve Scherf et al.
# Submitted via: CDex 1.51
#
DISCID=6911470a
DTITLE=Miles Davis - Doo-Bop
DYEAR=1991
DGENRE=Jazz
TTITLE0=Davis and Easy Mo Bee - Mystery
TTITLE1=Davis and Easy Mo Bee - The Doo Bop Song
TTITLE2=Davis and Easy Mo Bee and Hepburn - Chocolate Chip
TTITLE3=Davis and Easy Mo Bee and Mizell - High Speed Chase
TTITLE4=Davis and Easy Mo Bee - Blow
TTITLE5=Davis and Easy Mo Bee - Sonya
TTITLE6=Davis and Easy Mo Bee - Fantasy
TTITLE7=Davis and Easy Mo Bee - Duke Booty
TTITLE8=Davis and Easy Mo Bee - Mystery (Reprise)
TTITLE9=Bonus Track
EXTD=YEAR: 1991
EXTT0=
EXTT1=
EXTT2=
EXTT3=
EXTT4=
EXTT5=
EXTT6=
EXTT7=
EXTT8=
EXTT9=
PLAYORDER=
